<?xml version="1.0" encoding="UTF-8" standalone="no"?>
<!-- Created with Inkscape (http://www.inkscape.org/) -->

<svg
   xmlns:dc="http://purl.org/dc/elements/1.1/"
   xmlns:cc="http://creativecommons.org/ns#"
   xmlns:rdf="http://www.w3.org/1999/02/22-rdf-syntax-ns#"
   xmlns:svg="http://www.w3.org/2000/svg"
   xmlns="http://www.w3.org/2000/svg"
   xmlns:xlink="http://www.w3.org/1999/xlink"
   xmlns:sodipodi="http://sodipodi.sourceforge.net/DTD/sodipodi-0.dtd"
   xmlns:inkscape="http://www.inkscape.org/namespaces/inkscape"
   width="79.375mm"
   height="90mm"
   viewBox="0 0 79.375 79.41922"
   version="1.1"
   id="svg8"
   inkscape:version="0.92.1 r15371"
   sodipodi:docname="icon_4-1-t.svg">
  <defs
     id="defs2">
    <linearGradient
       inkscape:collect="always"
       id="linearGradient4552">
      <stop
         style="stop-color:#000000;stop-opacity:1;"
         offset="0"
         id="stop4548" />
      <stop
         style="stop-color:#000000;stop-opacity:0;"
         offset="1"
         id="stop4550" />
    </linearGradient>
    <linearGradient
       inkscape:collect="always"
       xlink:href="#linearGradient4552"
       id="linearGradient4554"
       x1="20.476748"
       y1="257.29037"
       x2="58.898251"
       y2="257.29037"
       gradientUnits="userSpaceOnUse" />
  </defs>
  <sodipodi:namedview
     id="base"
     pagecolor="#ffffff"
     bordercolor="#666666"
     borderopacity="1.0"
     inkscape:pageopacity="0.0"
     inkscape:pageshadow="2"
     inkscape:zoom="3.959798"
     inkscape:cx="135.82338"
     inkscape:cy="61.647685"
     inkscape:document-units="mm"
     inkscape:current-layer="layer1"
     showgrid="true"
     inkscape:window-width="1366"
     inkscape:window-height="705"
     inkscape:window-x="-8"
     inkscape:window-y="-8"
     inkscape:window-maximized="1"
     fit-margin-top="0"
     fit-margin-left="0"
     fit-margin-right="0"
     fit-margin-bottom="0">
    <inkscape:grid
       type="xygrid"
       id="grid4517"
       originx="8.9838372e-007"
       originy="2.7031689e-007" />
  </sodipodi:namedview>
  <metadata
     id="metadata5">
    <rdf:RDF>
      <cc:Work
         rdf:about="">
        <dc:format>image/svg+xml</dc:format>
        <dc:type
           rdf:resource="http://purl.org/dc/dcmitype/StillImage" />
        <dc:title />
      </cc:Work>
    </rdf:RDF>
  </metadata>
  <g
     inkscape:label="Capa 1"
     inkscape:groupmode="layer"
     id="layer1"
     transform="translate(8.9838372e-7,-217.58078)"
     style="display:inline">
    <text
       xml:space="preserve"
       style="font-style:normal;font-variant:normal;font-weight:normal;font-stretch:normal;font-size:10.58333302px;line-height:1.25;font-family:Impact;-inkscape-font-specification:Impact;letter-spacing:0px;word-spacing:0px;fill:#000000;fill-opacity:1;stroke:none;stroke-width:0.26458332;stroke-opacity:0.51028807"
       x="5.2916665"
       y="23.15625"
       id="text4533"><tspan
         sodipodi:role="line"
         id="tspan4531"
         x="5.2916665"
         y="33.751038"
         style="font-style:normal;font-variant:normal;font-weight:normal;font-stretch:normal;font-family:Impact;-inkscape-font-specification:Impact;stroke:none;stroke-width:0.26458332;stroke-opacity:0.51028807" /></text>
    <text
       xml:space="preserve"
       style="font-style:normal;font-variant:normal;font-weight:normal;font-stretch:normal;font-size:10.58333302px;line-height:1.25;font-family:Impact;-inkscape-font-specification:Impact;letter-spacing:0px;word-spacing:0px;display:inline;fill:#000000;fill-opacity:1;stroke:none;stroke-width:0.26458332;stroke-opacity:0.51028807"
       x="2.6458333"
       y="220.27083"
       id="text4488"><tspan
         sodipodi:role="line"
         id="tspan4486"
         x="2.6458333"
         y="230.86562"
         style="font-style:normal;font-variant:normal;font-weight:normal;font-stretch:normal;font-family:Impact;-inkscape-font-specification:Impact;stroke:none;stroke-width:0.26458332;stroke-opacity:0.51028807" /></text>
    <text
       xml:space="preserve"
       style="font-style:normal;font-variant:normal;font-weight:normal;font-stretch:normal;font-size:96.36845398px;line-height:1.25;font-family:Impact;-inkscape-font-specification:Impact;letter-spacing:0px;word-spacing:0px;fill:none;fill-opacity:0.50769234;stroke:none;stroke-width:0.28216413;stroke-miterlimit:4;stroke-dasharray:none;stroke-opacity:0.51028807"
       x="1.8082985"
       y="288.51935"
       id="text4536"><tspan
         sodipodi:role="line"
         id="tspan4534"
         x="1.8082985"
         y="288.51935"
         style="font-style:normal;font-variant:normal;font-weight:normal;font-stretch:normal;font-family:Impact;-inkscape-font-specification:Impact;fill:none;fill-opacity:0.50769234;stroke:none;stroke-width:0.28216413;stroke-miterlimit:4;stroke-dasharray:none;stroke-opacity:0.51028807">Ψ</tspan></text>
    <g
       id="g4599">
      <path
         sodipodi:nodetypes="cccccccccccssccccc"
         inkscape:connector-curvature="0"
         id="path4552"
         d="m 14.604459,235.25142 v -14.2321 H 11.199024 7.7935877 l -0.3247922,-0.63477 c -0.4485264,-0.87658 -1.1872542,-1.54618 -2.2560642,-2.04492 l -0.9059196,-0.42274 0.037294,-1.68943 0.037294,-1.85758 h 8.6528513 8.652851 l 0.004,11.62632 c 0.0022,6.33984 0.05904,12.79434 0.12627,14.34334 0.173771,4.00378 0.588182,6.34462 1.465935,8.28046 l 0.39152,0.86348 h -4.535202 -4.5352 z"
         style="opacity:0.98999999;fill:#66cc33;fill-opacity:0.98039216;fill-rule:nonzero;stroke:none;stroke-width:0.13363476;stroke-linecap:butt;stroke-linejoin:round;stroke-miterlimit:4;stroke-dasharray:none;stroke-opacity:0.51028807" />
      <path
         inkscape:connector-curvature="0"
         id="path4554"
         d="m 33.196511,260.80685 c -0.03767,-0.26526 -0.129273,-0.30461 -0.777695,-0.33411 -1.126927,-0.0513 -4.764487,-0.43563 -5.813113,-0.61425 l -0.935443,-0.15934 -0.07375,-1.34287 c -0.123042,-2.24053 -0.667346,-2.76941 -2.863551,-2.78239 -1.087192,-0.006 -1.296733,0.0343 -2.011314,0.39122 -0.682265,0.34074 -0.846856,0.49819 -1.137525,1.08811 l -0.339841,0.68973 -1.063324,-0.55672 c -1.429174,-0.74826 -2.390014,-1.40347 -3.628971,-2.47462 -1.079715,-0.93349 -3.217173,-3.58747 -3.024326,-3.75518 0.244897,-0.21297 3.352592,-0.73739 5.538137,-0.93456 0.85348,-0.077 2.745452,-0.14409 4.204383,-0.1491 l 2.652601,-0.009 0.267004,0.37677 c 0.146852,0.20722 0.674809,0.80172 1.173237,1.32111 1.4698,1.53161 3.389553,2.45809 6.053532,2.92146 1.988325,0.34585 1.804069,0.51548 1.804069,-1.66083 0,-1.44098 0.03971,-1.87089 0.172821,-1.87089 0.333885,0 2.57702,0.69818 3.535542,1.10044 l 0.968854,0.4066 v 2.58735 2.58735 h 1.589318 c 1.325975,0 1.602761,0.035 1.670436,0.21138 0.04461,0.11626 0.08111,0.89802 0.08111,1.73725 v 1.52587 h -3.999748 -3.999749 z"
         style="opacity:0.98999999;fill:#9933cc;fill-opacity:0.98039216;fill-rule:nonzero;stroke:none;stroke-width:0.13363476;stroke-linecap:butt;stroke-linejoin:round;stroke-miterlimit:4;stroke-dasharray:none;stroke-opacity:0.51028807" />
      <path
         sodipodi:nodetypes="ccccccccccccc"
         inkscape:connector-curvature="0"
         id="path4556"
         d="m 32.208634,220.24663 c -0.506807,-0.94581 -1.353114,-1.61438 -2.763192,-2.18288 l -1.035669,-0.41756 v -1.58859 -1.68772 h 6.681737 6.681739 v 3.37317 3.27405 l -4.57699,-0.002 -4.576992,-0.002 -0.410633,-0.76633 z"
         style="opacity:0.98999999;fill:#66cc33;fill-opacity:0.98039216;fill-rule:nonzero;stroke:none;stroke-width:0.13363476;stroke-linecap:butt;stroke-linejoin:round;stroke-miterlimit:4;stroke-dasharray:none;stroke-opacity:0.51028807" />
      <path
         sodipodi:nodetypes="ccccccccscccc"
         inkscape:connector-curvature="0"
         id="path4558"
         d="m 42.307787,231.97515 v -17.60527 h 4.34313 4.34313 v 1.67499 1.57587 l -1.142852,0.51472 c -2.033354,0.91578 -2.930043,2.02773 -3.362883,4.17019 -0.18271,0.90436 -0.219747,2.86256 -0.266922,14.11286 l -0.05478,13.0628 H 44.2372 42.307787 Z"
         style="opacity:0.98999999;fill:#cc9933;fill-opacity:0.98039216;fill-rule:nonzero;stroke:none;stroke-width:0.13363476;stroke-linecap:butt;stroke-linejoin:round;stroke-miterlimit:4;stroke-dasharray:none;stroke-opacity:0.51028807" />
      <path
         sodipodi:nodetypes="ccscccccccccccccccccsssccccc"
         inkscape:connector-curvature="0"
         id="path4560"
         d="m 56.096333,248.58081 c 0.530799,-1.17066 1.001374,-3.04359 1.267868,-5.04625 0.179821,-1.35134 0.222816,-3.76372 0.273304,-15.33459 l 0.05991,-13.83009 h 6.537286 6.537288 v 3.37317 3.27405 h -5.81533 -5.815333 l 0.03563,3.50792 0.03563,3.50791 5.445617,0.0349 5.445617,0.0349 v 3.20574 3.20573 h -5.479026 -5.479026 v 4.07586 4.07586 h 5.746295 c 3.160464,0 5.746295,0.0499 5.746295,0.111 0,0.061 -0.114361,0.74516 -0.254138,1.52026 -0.286594,1.58924 -0.781656,3.30344 -1.278474,4.42684 l -0.334905,0.75728 h -6.541407 -6.541408 z"
         style="opacity:0.98999999;fill:#cc9933;fill-opacity:0.98039216;fill-rule:nonzero;stroke:none;stroke-width:0.13363476;stroke-linecap:butt;stroke-linejoin:round;stroke-miterlimit:4;stroke-dasharray:none;stroke-opacity:0.51028807" />
      <path
         inkscape:connector-curvature="0"
         id="path4562"
         d="m 48.693551,258.88712 -0.03811,-1.45455 -3.57473,-0.0356 -3.574732,-0.0356 v -0.33657 c 0,-0.63119 -0.687266,-2.41926 -1.179801,-3.0695 -0.269848,-0.35626 -0.806344,-0.85986 -1.192215,-1.11912 l -0.701582,-0.47137 v -0.90722 -0.90723 h 3.875407 3.875408 v 2.07135 c 0,2.39371 -0.184124,2.19006 1.68634,1.86523 2.866602,-0.49782 4.784873,-1.43512 6.374617,-3.11474 l 0.777864,-0.82184 h 6.552938 c 5.939174,0 6.545289,0.0199 6.471272,0.21282 -0.219353,0.57163 -1.595924,2.36459 -2.523823,3.28725 -3.434559,3.41514 -8.745472,5.48745 -15.893407,6.20157 l -0.897332,0.0897 z"
         style="opacity:0.98999999;fill:#cc3366;fill-opacity:0.98039216;fill-rule:nonzero;stroke:none;stroke-width:0.13363476;stroke-linecap:butt;stroke-linejoin:round;stroke-miterlimit:4;stroke-dasharray:none;stroke-opacity:0.51028807" />
      <path
         sodipodi:nodetypes="cccccscccscc"
         inkscape:connector-curvature="0"
         id="path4564"
         d="m 28.43894,284.68393 0.03765,-1.54694 0.943311,-0.36677 c 1.85397,-0.72086 2.743767,-1.62798 3.270883,-3.33458 0.355581,-1.15124 0.527134,-4.11754 0.528645,-9.14072 7.94e-4,-2.70257 0.04641,-3.97563 0.142394,-3.97563 0.468619,0 4.877805,2.07557 5.887415,2.77142 2.160588,1.48915 3.25382,3.78905 3.415009,7.18437 0.186066,3.91925 -0.884862,6.20606 -3.560815,7.60358 -2.348968,1.22676 -6.872444,2.35221 -9.454147,2.35221 H 28.40129 Z"
         style="opacity:0.98999999;fill:#9933cc;fill-opacity:0.98039216;fill-rule:nonzero;stroke:none;stroke-width:0.13363476;stroke-linecap:butt;stroke-linejoin:round;stroke-miterlimit:4;stroke-dasharray:none;stroke-opacity:0.51028807" />
      <path
         sodipodi:nodetypes="ccscccccccscccccc"
         inkscape:connector-curvature="0"
         id="path4568"
         d="m 23.735698,248.68573 c -0.523857,-1.03776 -1.003902,-2.71542 -1.290736,-4.51088 -0.205119,-1.28395 -0.235814,-3.00657 -0.279889,-15.70761 l -0.0495,-14.09736 h 3.013467 3.013468 v 1.7484 1.91655 l 0.567946,0.16984 c 1.393677,0.41676 2.620299,1.23488 3.11363,2.07669 0.40654,0.6937 0.406162,0.73574 -0.0066,0.73574 h -0.33409 v 14.23211 14.2321 H 27.81034 24.137308 Z"
         style="opacity:0.98999999;fill:#565656;fill-opacity:0.98039216;fill-rule:nonzero;stroke:none;stroke-width:0.13363476;stroke-linecap:butt;stroke-linejoin:round;stroke-miterlimit:4;stroke-dasharray:none;stroke-opacity:0.51028807" />
      <path
         sodipodi:nodetypes="sccscccscscccs"
         inkscape:connector-curvature="0"
         id="path4572"
         d="m 46.584099,237.11483 c 0,-7.67494 0.05294,-12.85879 0.139531,-13.66416 0.342334,-3.18383 1.269981,-4.31635 4.437462,-5.41748 0.207748,-0.0722 0.23386,-0.29065 0.23386,-1.95638 v -1.70693 h 2.947244 2.947241 l -0.0508,13.89691 c -0.04504,12.32141 -0.07875,14.25558 -0.276275,15.60186 -0.265063,1.80658 -0.729668,3.52724 -1.280354,4.74175 l -0.39489,0.87091 h -4.35151 -4.351512 z"
         style="opacity:0.98999999;fill:#565656;fill-opacity:0.98039216;fill-rule:nonzero;stroke:none;stroke-width:0.13363476;stroke-linecap:butt;stroke-linejoin:round;stroke-miterlimit:4;stroke-dasharray:none;stroke-opacity:0.51028807" />
      <path
         inkscape:connector-curvature="0"
         id="path4574"
         d="m 69.527715,248.64609 c 0.492477,-1.20759 0.903759,-2.65706 1.165987,-4.10927 0.126082,-0.69824 0.256559,-1.40483 0.289947,-1.57021 0.04898,-0.2426 0.150553,-0.30068 0.52588,-0.30068 h 0.465177 v 3.40769 3.40769 h -1.393803 -1.393804 z"
         style="opacity:0.98999999;fill:#565656;fill-opacity:0.98039216;fill-rule:nonzero;stroke:none;stroke-width:0.13363476;stroke-linecap:butt;stroke-linejoin:round;stroke-miterlimit:4;stroke-dasharray:none;stroke-opacity:0.51028807" />
      <path
         inkscape:connector-curvature="0"
         id="path4576"
         d="m 18.921705,286.48389 c -6.67263,-0.58407 -11.8417912,-2.44452 -13.4274754,-4.83274 -0.9802344,-1.47634 -1.3943523,-3.33164 -1.4013214,-6.27811 l -0.00466,-1.97111 h 7.8065198 7.806518 l 0.04452,2.97337 c 0.04988,3.33135 0.12442,3.62831 1.045738,4.16639 0.564776,0.32985 2.631735,0.45553 3.670072,0.22316 0.843656,-0.1888 1.62233,-0.8014 1.957958,-1.54036 0.457309,-1.00686 0.282044,-3.09682 -0.367918,-4.38724 -0.607009,-1.20514 -1.446008,-1.60511 -9.5862,-4.57002 -8.2219941,-2.9947 -9.0184633,-3.37162 -10.717818,-5.07209 -1.6582815,-1.65937 -2.1939331,-3.02449 -2.1939331,-5.5913 0,-3.7638 1.1781409,-5.88685 4.0510782,-7.30017 0.9296522,-0.45734 2.9873319,-1.21875 3.2936299,-1.21875 0.05187,0 0.570384,0.6402 1.152246,1.42266 0.581862,0.78246 1.478881,1.8095 1.993375,2.2823 1.079201,0.99176 3.071246,2.35423 4.376538,2.99337 0.895338,0.4384 0.902035,0.44575 0.902035,0.9901 0,0.91062 0.34909,1.83692 0.899819,2.38765 0.748393,0.74839 1.977627,1.27521 6.464849,2.77066 2.233607,0.74439 4.527156,1.53126 5.096774,1.7486 l 1.035669,0.39515 -0.0045,4.89938 c -0.0063,6.84154 -0.168958,8.31617 -1.066938,9.67187 -0.499676,0.75438 -1.324748,1.32295 -2.628789,1.81155 l -0.974095,0.36497 -0.0013,1.81844 -0.0013,1.81844 -0.821409,0.0859 c -1.119992,0.11706 -6.83562,0.0748 -8.399389,-0.062 z"
         style="opacity:0.98999999;fill:#565656;fill-opacity:0.98039216;fill-rule:nonzero;stroke:none;stroke-width:0.13363476;stroke-linecap:butt;stroke-linejoin:round;stroke-miterlimit:4;stroke-dasharray:none;stroke-opacity:0.51028807" />
      <path
         inkscape:connector-curvature="0"
         id="path4578"
         d="m 31.416556,254.0773 c -2.926496,-0.52251 -5.077694,-1.71964 -6.644133,-3.69743 l -0.428832,-0.54145 1.714719,0.0917 c 1.738949,0.093 4.220265,0.37482 5.558697,0.63143 1.317521,0.25259 1.202713,0.0614 1.202713,2.00239 0,1.2999 -0.0414,1.72528 -0.167044,1.71626 -0.09187,-0.007 -0.648129,-0.0979 -1.23612,-0.20287 z"
         style="opacity:0.98999999;fill:#565656;fill-opacity:0.98039216;fill-rule:nonzero;stroke:none;stroke-width:0.13363476;stroke-linecap:butt;stroke-linejoin:round;stroke-miterlimit:4;stroke-dasharray:none;stroke-opacity:0.51028807" />
      <path
         inkscape:connector-curvature="0"
         id="path4580"
         d="m 25.603443,260.58852 v -0.51902 l 0.913823,0.17412 c 1.129131,0.21515 4.732481,0.59664 5.635501,0.59664 0.366823,0 0.666953,0.0601 0.666953,0.13364 0,0.0858 -1.291804,0.13363 -3.608138,0.13363 h -3.608139 z"
         style="opacity:0.98999999;fill:#565656;fill-opacity:0.98039216;fill-rule:nonzero;stroke:none;stroke-width:0.13363476;stroke-linecap:butt;stroke-linejoin:round;stroke-miterlimit:4;stroke-dasharray:none;stroke-opacity:0.51028807" />
      <path
         inkscape:connector-curvature="0"
         id="path4582"
         d="m 38.43238,255.08927 c 0,-2.58896 -0.03631,-2.53923 1.0562,-1.44672 0.763683,0.76368 1.253763,1.80298 1.550887,3.2889 l 0.08684,0.43431 H 39.779344 38.43238 Z"
         style="opacity:0.98999999;fill:#cc4d33;fill-opacity:0.98039216;fill-rule:nonzero;stroke:none;stroke-width:0.13363476;stroke-linecap:butt;stroke-linejoin:round;stroke-miterlimit:4;stroke-dasharray:none;stroke-opacity:0.51028807" />
      <path
         inkscape:connector-curvature="0"
         id="path4584"
         d="m 46.584099,252.42127 v -1.87089 l 3.975635,0.006 3.975634,0.006 -0.957154,0.90713 c -1.469138,1.39236 -3.20634,2.18949 -5.708679,2.61949 -0.652745,0.11216 -1.209,0.20393 -1.236123,0.20393 -0.02712,0 -0.04931,-0.8419 -0.04931,-1.87088 z"
         style="opacity:0.98999999;fill:#565656;fill-opacity:0.98039216;fill-rule:nonzero;stroke:none;stroke-width:0.13363476;stroke-linecap:butt;stroke-linejoin:round;stroke-miterlimit:4;stroke-dasharray:none;stroke-opacity:0.51028807" />
      <path
         sodipodi:nodetypes="ccccccccscccccccccccccc"
         inkscape:connector-curvature="0"
         id="path4586"
         d="m 51.365784,284.41666 -0.03765,-1.54694 -0.973791,-0.37863 c -0.535585,-0.20825 -1.121907,-0.47568 -1.302938,-0.5943 l -0.32915,-0.21567 v -10.47155 -10.47154 l 1.03567,-0.0935 c 1.501179,-0.13559 4.593433,-0.67142 6.146011,-1.06498 1.952001,-0.49481 3.517508,-1.0741 5.142484,-1.90292 2.92962,-1.49425 5.117647,-3.37491 6.710929,-5.7682 l 0.904052,-1.358 h 3.594356 3.594357 v 3.40769 3.40769 h -5.144939 -5.14494 v 14.29892 14.43251 h -7.0784 -7.078401 z"
         style="opacity:0.98999999;fill:#565656;fill-opacity:0.98039216;fill-rule:nonzero;stroke:none;stroke-width:0.13363476;stroke-linecap:butt;stroke-linejoin:round;stroke-miterlimit:4;stroke-dasharray:none;stroke-opacity:0.51028807" />
      <path
         sodipodi:nodetypes="ccccccccc"
         inkscape:connector-curvature="0"
         id="path4590"
         d="m 48.722255,284.09271 c 0,-1.77891 0.04753,-2.02358 0.340771,-1.75431 0.06982,0.0641 0.517834,0.2708 0.995579,0.45931 l 0.868624,0.34274 0.03793,1.41157 0.03793,1.54522 h -1.140418 -1.140418 z"
         style="opacity:0.98999999;fill:#cc3366;fill-opacity:0.98039216;fill-rule:nonzero;stroke:none;stroke-width:0.13363476;stroke-linecap:butt;stroke-linejoin:round;stroke-miterlimit:4;stroke-dasharray:none;stroke-opacity:0.51028807" />
      <path
         inkscape:connector-curvature="0"
         id="path4592"
         d="m 10.647891,249.54039 c -1.0310059,-2.08065 -1.6279517,-4.2651 -2.0246613,-7.40899 -0.078833,-0.62475 -0.1943778,-5.04472 -0.256767,-9.82216 -0.101653,-7.78407 -0.1947746,-9.87072 -0.4815734,-10.79101 -0.067991,-0.21817 0.1384175,-0.23386 3.0765417,-0.23386 h 3.149422 v 14.2321 14.23211 l 0.968852,0.0165 0.968852,0.0165 -0.868626,0.11944 c -0.988876,0.13597 -3.500283,0.61638 -3.77667,0.72244 -0.12571,0.0482 -0.364318,-0.29387 -0.75537,-1.08305 z"
         style="opacity:0.98999999;fill:#33cc99;fill-opacity:0.98039216;fill-rule:nonzero;stroke:none;stroke-width:0.13363476;stroke-linecap:butt;stroke-linejoin:round;stroke-miterlimit:4;stroke-dasharray:none;stroke-opacity:0.51028807" />
      <path
         inkscape:connector-curvature="0"
         id="path4594"
         d="m 36.931113,251.69073 c -0.42145,-0.17508 -1.097976,-0.41309 -1.503392,-0.52889 -0.405413,-0.1158 -1.06336,-0.30371 -1.462106,-0.41758 l -0.72499,-0.20703 -0.06266,-13.52394 c -0.05894,-12.72098 -0.10767,-14.45175 -0.436237,-15.49506 -0.06917,-0.21963 0.207354,-0.23386 4.545756,-0.23386 h 4.619403 v 14.2321 14.23211 h 2.138156 c 2.049068,0 2.138156,0.0111 2.138156,0.26727 0,0.26152 -0.08909,0.26727 -4.142677,0.26727 h -4.142676 v 0.86862 c 0,0.47774 -0.0451,0.86609 -0.100227,0.86298 -0.05513,-0.003 -0.44505,-0.1489 -0.866502,-0.32399 z"
         style="opacity:0.98999999;fill:#33cc99;fill-opacity:0.98039216;fill-rule:nonzero;stroke:none;stroke-width:0.13363476;stroke-linecap:butt;stroke-linejoin:round;stroke-miterlimit:4;stroke-dasharray:none;stroke-opacity:0.51028807" />
      <path
         sodipodi:nodetypes="ccccccccccccccccccccccscc"
         inkscape:connector-curvature="0"
         id="path4596"
         d="m 59.680307,238.59007 v -3.80859 h 5.412209 5.412208 v -3.54132 -3.54132 h -5.412208 -5.412209 v -3.20723 -3.20724 h 5.813113 5.81311 v -3.40768 -3.50681 h 2.209088 2.209086 l -0.03752,1.70654 -0.03752,1.60743 -1.041564,0.45255 c -1.79257,0.77886 -2.555229,1.56496 -3.043031,3.1366 -0.427432,1.37712 -0.516472,3.07994 -0.521303,9.96944 -0.004,5.71372 -0.150622,10.25257 -0.352819,10.92236 -0.06574,0.21777 -0.447056,0.23386 -5.540616,0.23386 h -5.47002 z"
         style="opacity:0.98999999;fill:#33cc99;fill-opacity:0.98039216;fill-rule:nonzero;stroke:none;stroke-width:0.13363476;stroke-linecap:butt;stroke-linejoin:round;stroke-miterlimit:4;stroke-dasharray:none;stroke-opacity:0.51028807" />
      <path
         sodipodi:nodetypes="ccccccccccccccccccscccccccc"
         inkscape:connector-curvature="0"
         id="path4598"
         d="m 33.206705,286.13867 c 5.365758,-1.22854 8.009126,-2.59125 9.063805,-4.67255 0.656881,-1.2963 0.816957,-2.19669 0.815975,-4.58969 -0.0011,-2.51574 -0.176374,-3.46119 -0.934045,-5.03645 -1.065038,-2.21431 -3.242107,-3.75079 -7.842763,-5.5351 l -1.168824,-0.45331 -5.29e-4,-2.23839 -5.29e-4,-2.23838 h 4.276312 4.276315 v -1.87089 -1.87088 h 3.274049 3.274052 v 1.40316 1.40317 h -1.010877 -1.010878 l 0.05298,8.78648 c 0.04492,7.44963 0.08539,8.92158 0.265943,9.67435 0.259792,1.08312 0.630981,1.83353 1.240896,2.50864 l 0.461933,0.5113 v 2.15537 2.02174 h -7.650588 c -4.207825,-0.009 -7.530319,0.0751 -7.383322,0.0414 z"
         style="opacity:0.98999999;fill:#33cc99;fill-opacity:0.98039216;fill-rule:nonzero;stroke:none;stroke-width:0.13363476;stroke-linecap:butt;stroke-linejoin:round;stroke-miterlimit:4;stroke-dasharray:none;stroke-opacity:0.51028807" />
      <path
         inkscape:connector-curvature="0"
         id="path4570"
         d="m 4.3555154,219.67883 v -1.33827 l 0.7818953,0.3947 c 1.0145392,0.51214 1.5729328,0.9906 1.8966598,1.62516 0.1437754,0.28182 0.2614096,0.54486 0.2614096,0.58454 0,0.0397 -0.6614919,0.0721 -1.4699823,0.0721 H 4.3555154 Z"
         style="opacity:0.98999999;fill:#565656;fill-opacity:0.98039216;fill-rule:nonzero;stroke:none;stroke-width:0.13363476;stroke-linecap:butt;stroke-linejoin:round;stroke-miterlimit:4;stroke-dasharray:none;stroke-opacity:0.51028807" />
    </g>
    <g
       aria-label="Psytest"
       transform="matrix(0.26458333,0,0,0.26458333,0.63711402,209.15675)"
       style="font-style:normal;font-weight:normal;font-size:40px;line-height:1.25;font-family:sans-serif;letter-spacing:0px;word-spacing:0px;fill:#565656;fill-opacity:1;stroke:none"
       id="flowRoot4541">
      <path
         d="m 77.958135,299.95313 q 4.533333,0 7.306667,2.82666 2.773333,2.82667 2.773333,7.36 0,2.98667 -1.28,5.44 -1.226667,2.4 -3.52,3.78667 -2.293333,1.33333 -5.28,1.33333 H 66.331468 v 15.52 q 0,0.42667 -0.373334,0.74667 -0.32,0.32 -0.746666,0.32 -0.480001,0 -0.800001,-0.32 -0.32,-0.32 -0.32,-0.74667 v -35.2 q 0,-0.42666 0.32,-0.74666 0.32,-0.32 0.746667,-0.32 z m 0,18.61333 q 3.573333,0 5.706667,-2.34667 2.133333,-2.4 2.133333,-6.08 0,-3.68 -2.133333,-5.86666 -2.08,-2.18667 -5.706667,-2.18667 H 66.331468 v 16.48 z"
         style="font-style:normal;font-variant:normal;font-weight:300;font-stretch:normal;font-size:53.33333588px;font-family:Quicksand;-inkscape-font-specification:'Quicksand Light';text-align:center;letter-spacing:0px;text-anchor:middle;fill:#565656;fill-opacity:1"
         id="path4535" />
      <path
         d="m 93.358135,333.01979 q -0.373333,-0.58666 -0.373333,-1.01333 0,-0.37333 0.426667,-0.69333 0.266666,-0.26667 0.64,-0.26667 0.533333,0 0.853333,0.42667 3.093334,4.42666 8.639998,4.42666 2.82667,0 4.96,-1.38666 2.13334,-1.44 2.13334,-3.84 0,-2.45334 -1.86667,-3.68 -1.86667,-1.22667 -5.12,-2.02667 -4.320001,-1.06667 -6.826668,-2.82667 -2.453333,-1.81333 -2.453333,-5.06666 0,-3.14667 2.506666,-5.17334 2.506667,-2.08 6.453335,-2.08 2.18667,0 4.32,0.85334 2.18667,0.85333 3.94667,2.72 0.37333,0.32 0.37333,0.74666 0,0.48 -0.37333,0.85334 -0.42667,0.21333 -0.69334,0.21333 -0.37333,0 -0.64,-0.32 -2.77333,-3.04 -7.14666,-3.04 -2.82667,0 -4.800004,1.38667 -1.920001,1.38666 -1.920001,3.84 0.16,2.29333 2.080001,3.57333 1.973334,1.22667 5.760004,2.18667 2.72,0.69333 4.48,1.54666 1.81333,0.8 2.88,2.29334 1.06666,1.49333 1.06666,3.89333 0,3.36 -2.61333,5.33333 -2.56,1.92 -6.72,1.92 -6.080001,0 -9.973335,-4.8 z"
         style="font-style:normal;font-variant:normal;font-weight:300;font-stretch:normal;font-size:53.33333588px;font-family:Quicksand;-inkscape-font-specification:'Quicksand Light';text-align:center;letter-spacing:0px;text-anchor:middle;fill:#565656;fill-opacity:1"
         id="path4537" />
      <path
         d="m 139.69647,309.81979 q 0.48,0 0.74667,0.32 0.32,0.32 0.32,0.74667 v 23.78667 q 0,4 -1.65334,6.98666 -1.6,3.04 -4.48,4.64 -2.82666,1.65334 -6.45333,1.65334 -2.34667,0 -4.32,-0.58667 -1.92,-0.53333 -3.25333,-1.44 -0.96,-0.64 -0.58667,-1.44 0.37333,-0.64 0.90667,-0.64 0.26666,0 0.48,0.16 1.28,0.8 3.04,1.38667 1.81333,0.64 3.84,0.64 3.04,0 5.38666,-1.44 2.34667,-1.44 3.62667,-4.05334 1.33333,-2.56 1.33333,-5.86666 v -2.4 q -1.22666,2.4 -3.94666,4 -2.66667,1.54666 -5.54667,1.54666 -4.8,0 -7.14667,-2.72 -2.34666,-2.77333 -2.34666,-7.57333 v -16.64 q 0,-0.42667 0.26666,-0.74667 0.32,-0.32 0.8,-0.32 0.48,0 0.74667,0.32 0.32,0.32 0.32,0.74667 v 16.64 q 0,8.26667 7.36,8.26667 2.29333,0 4.48,-1.17334 2.24,-1.22666 3.62667,-3.14666 1.38666,-1.92 1.38666,-3.94667 v -16.64 q 0,-0.42667 0.26667,-0.74667 0.32,-0.32 0.8,-0.32 z"
         style="font-style:normal;font-variant:normal;font-weight:300;font-stretch:normal;font-size:53.33333588px;font-family:Quicksand;-inkscape-font-specification:'Quicksand Light';text-align:center;letter-spacing:0px;text-anchor:middle;fill:#565656;fill-opacity:1"
         id="path4539" />
      <path
         d="m 159.56314,310.45979 q 0.37333,0 0.69333,0.32 0.32,0.32 0.32,0.69334 0,0.42666 -0.32,0.74666 -0.26667,0.26667 -0.69333,0.26667 h -5.86667 v 18.98667 q 0,2.34666 0.8,3.14666 0.85333,0.74667 2.13333,0.74667 0.21334,0 0.58667,-0.10667 0.42667,-0.10666 0.69333,-0.10666 0.37334,0 0.64,0.32 0.26667,0.26666 0.26667,0.64 0,0.48 -0.64,0.85333 -0.64,0.32 -1.49333,0.32 -1.33334,0 -2.24,-0.16 -0.90667,-0.21333 -1.92,-1.44 -0.96,-1.28 -0.96,-4.10667 v -19.09333 h -4.37334 q -0.37333,0 -0.69333,-0.32 -0.32,-0.32 -0.32,-0.69333 0,-0.42667 0.26667,-0.69334 0.32,-0.32 0.74666,-0.32 h 4.37334 v -6.77333 q 0,-0.42667 0.32,-0.74667 0.32,-0.32 0.74666,-0.32 0.48,0 0.74667,0.32 0.32,0.32 0.32,0.74667 v 6.77333 z"
         style="font-style:normal;font-variant:normal;font-weight:300;font-stretch:normal;font-size:53.33333588px;font-family:Quicksand;-inkscape-font-specification:'Quicksand Light';text-align:center;letter-spacing:0px;text-anchor:middle;fill:#565656;fill-opacity:1"
         id="path4541" />
      <path
         d="m 187.2723,330.88646 q 0.37334,0 0.64,0.32 0.26667,0.26667 0.26667,0.64 0,0.37333 -0.21333,0.64 -1.76,2.34667 -4.37334,3.84 -2.61333,1.49333 -5.6,1.49333 -4,0 -7.09333,-1.70666 -3.09333,-1.70667 -4.85333,-4.85334 -1.70667,-3.14666 -1.70667,-7.30666 0,-4.26667 1.65333,-7.46667 1.70667,-3.25333 4.48,-4.96 2.77334,-1.70667 5.92,-1.70667 3.14667,0 5.81334,1.38667 2.72,1.33333 4.42666,4.05333 1.70667,2.72 1.81334,6.72 0,0.42667 -0.32,0.8 -0.32,0.32 -0.74667,0.32 h -20.96 v 0.69334 q 0,3.30666 1.33333,6.08 1.33334,2.72 3.94667,4.32 2.61333,1.6 6.29333,1.6 2.56,0 4.8,-1.22667 2.29334,-1.28 3.57334,-3.2 0.37333,-0.48 0.90666,-0.48 z m -10.88,-18.93333 q -1.97333,0 -4.05333,1.06666 -2.02667,1.01334 -3.62667,3.09334 -1.54666,2.02666 -2.08,4.96 h 19.62667 v -0.48 q -0.26667,-2.72 -1.76,-4.64 -1.44,-1.97334 -3.62667,-2.98667 -2.13333,-1.01333 -4.48,-1.01333 z"
         style="font-style:normal;font-variant:normal;font-weight:300;font-stretch:normal;font-size:53.33333588px;font-family:Quicksand;-inkscape-font-specification:'Quicksand Light';text-align:center;letter-spacing:0px;text-anchor:middle;fill:#565656;fill-opacity:1"
         id="path4543" />
      <path
         d="m 193.98314,333.01979 q -0.37333,-0.58666 -0.37333,-1.01333 0,-0.37333 0.42666,-0.69333 0.26667,-0.26667 0.64,-0.26667 0.53334,0 0.85334,0.42667 3.09333,4.42666 8.64,4.42666 2.82666,0 4.96,-1.38666 2.13333,-1.44 2.13333,-3.84 0,-2.45334 -1.86667,-3.68 -1.86666,-1.22667 -5.12,-2.02667 -4.32,-1.06667 -6.82666,-2.82667 -2.45334,-1.81333 -2.45334,-5.06666 0,-3.14667 2.50667,-5.17334 2.50667,-2.08 6.45333,-2.08 2.18667,0 4.32,0.85334 2.18667,0.85333 3.94667,2.72 0.37333,0.32 0.37333,0.74666 0,0.48 -0.37333,0.85334 -0.42667,0.21333 -0.69333,0.21333 -0.37334,0 -0.64,-0.32 -2.77334,-3.04 -7.14667,-3.04 -2.82667,0 -4.8,1.38667 -1.92,1.38666 -1.92,3.84 0.16,2.29333 2.08,3.57333 1.97333,1.22667 5.76,2.18667 2.72,0.69333 4.48,1.54666 1.81333,0.8 2.88,2.29334 1.06667,1.49333 1.06667,3.89333 0,3.36 -2.61334,5.33333 -2.56,1.92 -6.72,1.92 -6.08,0 -9.97333,-4.8 z"
         style="font-style:normal;font-variant:normal;font-weight:300;font-stretch:normal;font-size:53.33333588px;font-family:Quicksand;-inkscape-font-specification:'Quicksand Light';text-align:center;letter-spacing:0px;text-anchor:middle;fill:#565656;fill-opacity:1"
         id="path4545" />
      <path
         d="m 230.18814,310.45979 q 0.37334,0 0.69334,0.32 0.32,0.32 0.32,0.69334 0,0.42666 -0.32,0.74666 -0.26667,0.26667 -0.69334,0.26667 h -5.86666 v 18.98667 q 0,2.34666 0.8,3.14666 0.85333,0.74667 2.13333,0.74667 0.21333,0 0.58667,-0.10667 0.42666,-0.10666 0.69333,-0.10666 0.37333,0 0.64,0.32 0.26667,0.26666 0.26667,0.64 0,0.48 -0.64,0.85333 -0.64,0.32 -1.49334,0.32 -1.33333,0 -2.24,-0.16 -0.90666,-0.21333 -1.92,-1.44 -0.96,-1.28 -0.96,-4.10667 v -19.09333 h -4.37333 q -0.37333,0 -0.69333,-0.32 -0.32,-0.32 -0.32,-0.69333 0,-0.42667 0.26666,-0.69334 0.32,-0.32 0.74667,-0.32 h 4.37333 v -6.77333 q 0,-0.42667 0.32,-0.74667 0.32,-0.32 0.74667,-0.32 0.48,0 0.74667,0.32 0.32,0.32 0.32,0.74667 v 6.77333 z"
         style="font-style:normal;font-variant:normal;font-weight:300;font-stretch:normal;font-size:53.33333588px;font-family:Quicksand;-inkscape-font-specification:'Quicksand Light';text-align:center;letter-spacing:0px;text-anchor:middle;fill:#565656;fill-opacity:1"
         id="path4547" />
    </g>
  </g>
</svg>
